<svg xmlns="http://www.w3.org/2000/svg" data-name="Layer 1" width="883.9291381835938" height="713.7455444335938"><rect id="backgroundrect" width="100%" height="100%" x="0" y="0" fill="none" stroke="none"/><title>real_time_collaboration</title><g class="currentLayer" style=""><title>Layer 1</title><path d="M581.6247490917968,399.6133122167969 c-18.647,11.18315 -51.86947,25.19569 -85.81929,10.79516 l-21.9459,-9.309 l43.97806,-49.2989 a210.03369,210.03369 0 1 1 63.78713,47.8127 zm-84.26208,-189.247 A174.54122,174.54122 0 0 0 552.9342690917969,338.78427221679686 l12.13072,11.39955 l-27.67378,31.0213 c14.41483,-2.9247300000000003 26.96977,-10.72271 33.3359,-15.25183 l8.73508,-6.21551 l9.39476,5.16211 a176.34274,176.34274 0 0 0 84.70584,21.66658 c97.15687,0 176.20012,-79.04277 176.20012,-176.20012 c0,-97.15688 -79.04325,-176.20012 -176.20012,-176.20012 S497.3626690917969,113.20947221679688 497.3626690917969,210.36635221679688 z" fill="#3f3d56" id="svg_1" class=""/><path d="M480.27956909179693,210.36635221679688 c0,-106.74742 86.53588,-193.28324 193.28324,-193.28324 s193.28323,86.53582 193.28323,193.28324 S780.3101490917969,403.6495822167969 673.5627890917968,403.6495822167969 A192.40347,192.40347 0 0 1 580.6305690917969,379.8730622167969 c-13.3609,9.50629 -45.955,28.46753 -78.1543,14.8092 l38.7594,-43.44838 A192.73528,192.73528 0 0 1 480.27956909179693,210.36635221679688 z" fill="#e6e16c" id="svg_2" class="" fill-opacity="1"/><path d="M833.9191990917968,210.78521221679688 c0,-100.98931 -77.45624,-183.87364 -176.20012,-192.52321 c5.63007,-0.49316000000000004 11.32507,-0.7600000000000001 17.08312,-0.7600000000000001 c106.74741,0 193.28323,86.53582 193.28323,193.28323 S781.5495690917969,404.06845221679686 674.8021990917969,404.06845221679686 c-5.74935,0 -11.43447,-0.27032000000000006 -17.05607,-0.7624000000000001 C756.4770190917968,394.6437722167969 833.9191990917968,311.7652322167969 833.9191990917968,210.78521221679688 z" opacity="0.1" style="isolation:isolate" id="svg_3"/><path d="M228.16256909179685,668.1248222167969 A210.59024,210.59024 0 1 1 383.8876990917969,599.1927722167969 l43.97806,49.29889 l-21.94589,9.309 c-33.94983,14.40053 -67.1723,0.38800000000000007 -85.8193,-10.79516 A210.856,210.856 0 0 1 228.16256909179685,668.1248222167969 zm0,-386.56647 c-97.15687,0 -176.20012,79.04325 -176.20012,176.20012 c0,97.15735 79.04325,176.20012 176.20012,176.20012 a176.3427,176.3427 0 0 0 84.70584,-21.66657 l9.39476,-5.16211 l8.73508,6.2155000000000005 c6.36613,4.52913 18.92107,12.32711 33.3359,15.25183 l-27.67378,-31.02129 l12.13072,-11.39955 a174.54124,174.54124 0 0 0 55.571600000000004,-128.41793 C404.3626490917969,360.6016022167969 325.3194090917969,281.5583522167969 228.16256909179685,281.5583522167969 z" fill="#3f3d56" id="svg_4" class=""/><path d="M421.4456390917969,457.75827221679685 c0,-106.74742 -86.53588,-193.28324 -193.28324,-193.28324 S34.87916909179688,351.0108522167969 34.87916909179688,457.75827221679685 s86.53588,193.28323 193.28323,193.28323 a192.40351,192.40351 0 0 0 92.93222,-23.77652 c13.3609,9.50629 45.955,28.46753 78.15429,14.8092 L360.4895090917969,598.6257722167969 A192.73528,192.73528 0 0 0 421.4456390917969,457.75827221679685 z" fill="#e6e16c" id="svg_5" class="" fill-opacity="1"/><path d="M69.04540909179687,456.78206221679693 c0,-100.98932 77.45624,-183.87364 176.20012,-192.52322 c-5.63007,-0.49315000000000003 -11.32507,-0.7600000000000001 -17.08312,-0.7600000000000001 c-106.74741,0 -193.28323,86.53582 -193.28323,193.28324 s86.53582,193.28323 193.28323,193.28323 c5.74935,0 11.43447,-0.27032000000000006 17.05607,-0.7624000000000001 C146.4875690917969,640.6406222167968 69.04540909179687,557.7620822167969 69.04540909179687,456.78206221679693 z" opacity="0.1" style="isolation:isolate" id="svg_6"/><path d="M718.9377990917968,148.96041221679687 c-12.64621,-21.36818 -37.66572,-22.364 -37.66572,-22.364 s-24.38009,-3.1177 -40.01977,29.4263 c-14.57742,30.33368 -34.69612,59.62147 -3.23894,66.72236 l5.68208,-17.68518 l3.5188800000000002,19.00182 a123.082,123.082 0 0 0 13.45936,0.23 c33.68809,-1.08765 65.77092,0.31822000000000006 64.7379,-11.77049 C724.0383590917969,196.4510022167969 731.1059890917969,169.52087221679687 718.9377990917968,148.96041221679687 z" fill="#2f2e41" id="svg_7"/><path d="M636.2172390917968,336.09177221679687 a49.88324,49.88324 0 0 1 -1.6131900000000001,6.94446 c-0.79135,2.22523 -2.01311,4.28315 -2.73667,6.53135 c-2.30639,7.16623 0.8909500000000001,15.15641 5.99761,20.68782 a33.75861,33.75861 0 0 0 16.45921,9.77351 a67.152,67.152 0 0 0 14.14455,1.4864000000000002 c13.14639,0.44579 26.631,0.8446200000000001 39.088,-3.38028 a67.91368,67.91368 0 0 0 11.35625,-5.15906 a8.50248,8.50248 0 0 0 2.9467,-2.32019 a8.10892,8.10892 0 0 0 1.06335,-4.75982 c-0.028000000000000004,-5.5731 -1.15779,-11.11778 -0.8895400000000001,-16.68449 c0.14859000000000003,-3.08339 0.7256600000000001,-6.1644 0.44160000000000005,-9.23828 a17.04267,17.04267 0 0 0 -13.02487,-14.6806 c-3.53377,-0.7588500000000001 -7.199,-0.3453500000000001 -10.79675,0.0005800000000000001 a275.28421,275.28421 0 0 1 -28.0989,1.25641 c-9.58559,-0.061190000000000015 -19.112,-1.52442 -28.64985,-1.6772300000000002 c-2.82063,-0.04520000000000001 -2.76365,0.82437 -3.66163,3.55422 A66.49636,66.49636 0 0 0 636.2172390917968,336.09177221679687 z" fill="#2f2e41" id="svg_8"/><path d="M663.4203390917969,198.47821221679686 c-0.46064,2.412 -0.9585400000000001,4.91216 -2.408,6.89429 c-1.66765,2.28051 -4.38669,3.58354 -6.18072,5.766 c-2.70037,3.28509 -2.85537,7.90774 -2.8665000000000003,12.16024 c-0.010250000000000002,3.91748 0.06932000000000002,8.0959 2.25393,11.3477 a19.83136,19.83136 0 0 0 5.68355,5.01092 c8.19271,5.52116 17.04578,11.14145 26.92356,11.32353 c4.09273,0.07544000000000001 8.48105,-0.9815099999999999 11.174,-4.06437 a16.77755,16.77755 0 0 0 2.70541,-4.82667 a64.09486,64.09486 0 0 0 4.537,-19.512 a22.91089,22.91089 0 0 0 -0.8637100000000001,-9.37317 c-1.2,-3.34568 -3.62632,-6.09851 -5.22991,-9.27058 A20.63833,20.63833 0 0 1 697.1625690917969,191.72137221679685 a1.31821,1.31821 0 0 0 -0.06972000000000003,-0.8850700000000001 a1.2892000000000001,1.2892000000000001 0 0 0 -1.06244,-0.43050000000000005 l-19.586,-1.4100000000000001 a42.62457,42.62457 0 0 1 -5.438,-0.62211 c-1.0558400000000001,-0.21469000000000002 -3.8445400000000003,-1.71422 -4.8512900000000005,-1.31548 C664.2914290917969,187.79634221679686 663.8023290917969,196.47807221679687 663.4203390917969,198.47821221679686 z" fill="#a0616a" id="svg_9"/><path d="M663.4203390917969,199.0896022167969 c-0.46064,2.412 -0.9585400000000001,4.9121500000000005 -2.408,6.89429 c-1.66765,2.2805 -4.38669,3.58353 -6.18072,5.766 c-2.70037,3.2851 -2.85537,7.90775 -2.8665000000000003,12.16024 c-0.010250000000000002,3.91748 0.06932000000000002,8.0959 2.25393,11.34771 A19.83132,19.83132 0 0 0 659.9025690917969,240.2687722167969 c8.19271,5.52116 17.04578,11.14145 26.92356,11.32353 c4.09273,0.07544000000000001 8.48105,-0.9815099999999999 11.174,-4.06437 a16.77741,16.77741 0 0 0 2.70541,-4.82667 a64.09487,64.09487 0 0 0 4.537,-19.512 a22.91087,22.91087 0 0 0 -0.8637100000000001,-9.37317 c-1.2,-3.3456900000000003 -3.62632,-6.09851 -5.22991,-9.27059 A20.63831,20.63831 0 0 1 697.1625690917969,192.33277221679685 a1.31819,1.31819 0 0 0 -0.06972000000000003,-0.8850600000000001 a1.28917,1.28917 0 0 0 -1.06244,-0.43051000000000006 l-19.586,-1.4100000000000001 a42.62277,42.62277 0 0 1 -5.438,-0.62211 c-1.0558400000000001,-0.21468 -3.8445400000000003,-1.71421 -4.8512900000000005,-1.3154700000000001 C664.2914290917969,188.4077722167969 663.8023290917969,197.08945221679687 663.4203390917969,199.0896022167969 z" opacity="0.1" id="svg_10"/><circle cx="682.1509399414062" cy="172.36953735351562" r="28.73501968383789" fill="#a0616a" id="svg_11"/><path d="M667.4505690917969,236.72904221679687 a17.62328,17.62328 0 0 0 5.04717,4.033 a15.8593,15.8593 0 0 0 6.30536,1.20055 c5.17975,0.14570000000000002 10.795,-0.80341 14.39825,-4.5273 c4.64482,-4.80029 4.49184,-12.54271 8.13259,-18.1429 a4.04135,4.04135 0 0 1 1.17319,-1.28307 a3.80294,3.80294 0 0 1 1.99542,-0.45879 c4.59816,-0.04300000000000001 8.6036,2.93926 12.21851,5.78133 a16.09469,16.09469 0 0 1 4.30068,4.381 a14.848790000000001,14.848790000000001 0 0 1 1.45027,4.44134 c1.7938800000000001,8.75694 2.37485,17.71061 2.95143,26.63078 c0.3184700000000001,4.927 0.6371000000000001,9.85876 0.61343,14.796 c-0.07800000000000001,16.2661 -3.85875,32.26018 -7.61847,48.086 c-0.48444000000000004,2.03915 -1.1473900000000001,4.31844 -3.0018,5.29518 a7.402,7.402 0 0 1 -2.61932,0.6393000000000001 c-10.76856,1.26468 -21.5594,2.5309 -32.40069,2.69787 q-6.34618,0.09774000000000004 -12.68683,-0.30724 a6.8342600000000004,6.8342600000000004 0 0 1 -2.13716,-0.37257000000000007 a6.02667,6.02667 0 0 1 -2.32991,-1.9786000000000001 c-5.86418,-7.38964 -6.21033,-17.60594 -6.17284,-27.03961 q0.13746000000000003,-34.59676 2.47219,-69.13824 c0.12851,-1.90069 0.15657000000000001,-4.209 -1.213,-5.70423 A71.40962,71.40962 0 0 0 667.4505690917969,236.72904221679687 z" fill="#fff" id="svg_12"/><path d="M661.3639290917969,203.55008221679685 c-0.9705099999999999,1.7568000000000001 -8.12566,6.11921 -9.507,7.57527 c-7.718,8.13519 -21.80434,7.82993 -28.863,16.54336 c-2.48345,3.06566 -3.77373,6.91763 -4.72269,10.747160000000001 c-1.34213,5.41621 -2.05878,11.32307 0.18956000000000003,16.43009 c2.16339,4.91409 6.71759,8.31142 9.80959,12.701 c3.395,4.81966 4.92143,10.67173 6.38427,16.38269 c1.08011,4.21678 2.16914,8.538 1.7485,12.87053 c-0.47827000000000003,4.926 -2.862,9.43647 -4.26943,14.18129 s-1.6503400000000001,10.396 1.6038400000000002,14.12483 c2.39074,2.73948 6.14067,3.82552 9.725,4.43646 a111.72711,111.72711 0 0 0 13.86106,1.20668 c4.09734,0.18100000000000002 8.6138,0.21623000000000003 11.76364,-2.41046 c2.48538,-2.07259 3.5656,-5.43591 3.70541,-8.669 s-0.53286,-6.43764 -0.9542200000000001,-9.64624 c-0.43679,-3.32621 -0.6046500000000001,-6.68139 -0.7450900000000001,-10.0332 q-0.94526,-22.55877 -0.258,-45.14656 a38.4201,38.4201 0 0 0 -0.457,-9.3683 c-0.8787200000000002,-4.02822 -3.0558,-7.6282 -4.8723600000000005,-11.3294 a42.873,42.873 0 0 1 -4.7535,-22.64814 C661.3026990917969,203.4386222167969 664.8174090917969,197.2985122167969 661.3639290917969,203.55008221679685 z" fill="#fff" id="svg_13"/><path d="M701.7152390917969,204.16146221679685 c1.47825,1.51932 6.50132,2.02018 8.38177,2.99865 a29.36836,29.36836 0 0 0 5.50992,1.90771 a71.53209,71.53209 0 0 1 19.35628,8.88384 a11.74706,11.74706 0 0 1 3.2369,2.79592 a12.81589,12.81589 0 0 1 1.79054,5.05636 c0.9207700000000001,4.561 1.84613,9.177 1.6392200000000001,13.82538 c-0.21964000000000003,4.93423 -1.70592,9.713000000000001 -3.18039,14.42692 L732.9400990917969,271.6697722167969 c-4.11236,13.14726 -8.25081,26.42395 -9.408,40.15067 a94.44483,94.44483 0 0 0 0.8476600000000001,22.8041 a2.70352,2.70352 0 0 1 -0.27789,2.2087 a2.17535,2.17535 0 0 1 -1.34915,0.6207800000000001 c-2.65906,0.41578000000000004 -5.23239,-0.9400000000000001 -7.64158,-2.13974 a84.62175,84.62175 0 0 0 -23.32742,-7.6329 a54.23155,54.23155 0 0 0 7.24542,-14.936 a90.39647,90.39647 0 0 0 2.18909,-10.272 l2.5628900000000003,-14.823080000000001 a145.65593,145.65593 0 0 0 2.19851,-16.39188 a20.5206,20.5206 0 0 0 -0.35673,-6.17482 a29.956,29.956 0 0 0 -2.34076,-5.56859 c-4.22379,-8.78591 -6.2056000000000004,-18.81222 -4.54371,-28.418 c0.7273000000000001,-4.2037700000000005 2.14066,-8.41316 1.55131,-12.63847 c-0.5666400000000001,-4.06246 0.022250000000000006,-7.21971 -1.02008,-11.24011 C694.9900190917969,190.71103221679687 698.9341390917969,201.30314221679686 701.7152390917969,204.16146221679685 z" fill="#fff" id="svg_14"/><path d="M622.9208290917969,241.5599522167969 c-1.92557,3.9958400000000003 -5.14483,7.39993 -6.2405100000000004,11.698080000000001 a25.55689,25.55689 0 0 0 -0.54411,6.1141 a29.04292,29.04292 0 0 0 0.907,9.19357 c0.6115400000000001,1.89541 1.60644,3.6434 2.32317,5.50159 a19.9482,19.9482 0 0 1 1.30672,8.15063 c-0.19337000000000001,3.849 -1.501,7.58522 -1.60317,11.43772 c-0.16070000000000004,6.05838 2.64147,11.75375 5.37573,17.1624 A12.616670000000001,12.616670000000001 0 0 1 642.7845690917969,304.8141222167969 a3.76086,3.76086 0 0 0 0.82656,-2.74145 q0.30315000000000003,-10.543 0.5848500000000001,-21.08655 c0.29600000000000004,-10.8709 0.57793,-21.88705 -1.92279,-32.47055 c-1.12908,-4.77847 -2.88591,-9.53848 -6.10656,-13.24478 c-1.69585,-1.95156 -7.45282,-7.092 -10.23661,-4.90577 c-1.25188,0.9831599999999999 -0.9593,3.65946 -1.15766,5.01467 A21.2751,21.2751 0 0 1 622.9208290917969,241.5599522167969 z" fill="#fff" id="svg_15"/><path d="M742.1927490917968,230.04488221679685 a29.40911,29.40911 0 0 1 0.98335,8.845 q0.05550000000000001,9.114090000000001 -0.24157,18.2258 a33.97739,33.97739 0 0 1 -1.18394,9.22739 c-0.6218400000000002,1.95543 -1.58145,3.78913 -2.22366,5.738 c-1.92466,5.84056 -0.8730800000000001,12.1752 -0.7080000000000001,18.32249 a20.8187,20.8187 0 0 1 -0.50419,5.92705 c-1.0157,3.81083 -3.74532,6.89011 -5.65047,10.34331 c-1.80937,3.27959 -2.90113,6.95565 -5.06211,10.015 s-5.90186,5.48354 -9.5278,4.54435 c-2.7473400000000003,-0.7116100000000001 -4.69948,-3.14339 -6.04977,-5.63957 a27.66137,27.66137 0 0 1 -2.8600000000000003,-17.943 c1.35561,-7.46106 5.7382100000000005,-14.08 7.31876,-21.49667 c2.17045,-10.18472 -1.12826,-20.69456 -1.0301,-31.10753 a15.0367,15.0367 0 0 1 0.6555000000000001,-4.822 c0.8290000000000001,-2.37852 2.60961,-4.2780000000000005 4.25453,-6.18555 a78.09591,78.09591 0 0 0 5.71806,-7.50429 c1.1776,-1.75624 2.777,-6.27327 4.86478,-6.64885 C735.6073590917969,219.0472522167969 741.0362890917969,226.4436622167969 742.1927490917968,230.04488221679685 z" fill="#fff" id="svg_16"/><path d="M598.7340990917969,331.5622322167969 a28.36259,28.36259 0 0 0 -7.8897200000000005,-0.8387200000000001 a19.69148,19.69148 0 0 0 -18.28168,23.21335 a33.07425,33.07425 0 0 0 3.12633,8.543 c2.09236,4.24623 4.60188,8.48272 8.47539,11.2038 a33.01075,33.01075 0 0 0 7.47978,3.56042 l20.40107,7.68544 c3.00122,1.13062 6.0029,2.26139 9.03383,3.30976 a176.7012,176.7012 0 0 0 47.18486,9.38044 a51.09211,51.09211 0 0 0 14.65041,-0.74236 a4.76925,4.76925 0 0 0 3.00039,-1.621 a5.13851,5.13851 0 0 0 0.6703800000000001,-2.21424 l1.25537,-8.78841 a7.36141,7.36141 0 0 0 -0.10670000000000002,-3.7048 c-0.57508,-1.477 -2.01659,-2.4061500000000002 -3.391,-3.19556 c-13.41226,-7.70334 -29.07268,-11.95321 -40.362,-22.52591 c-2.65768,-2.489 -4.88173,-6.43428 -8.11079,-8.125 c-3.6617,-1.9172500000000001 -7.974,-3.0114900000000002 -11.75893,-4.77821 C615.8368790917968,338.06196221679687 607.7017490917968,333.6236222167969 598.7340990917969,331.5622322167969 z" fill="#2f2e41" id="svg_17"/><path d="M619.1015690917968,343.4102722167969 c7.21092,2.25953 37.65544,17.91361 42.87372,23.37917 c-0.6994700000000001,0.252 -24.43152,-13.04779 -25.14362,-13.26151 A143.38928,143.38928 0 0 1 617.7024690917968,346.78677221679686 c-1.23663,-0.5720000000000001 -8.0339,-3.26024 -7.72607,-4.82054 C610.3237590917969,340.2055022167969 617.8214590917969,343.0091422167969 619.1015690917968,343.4102722167969 z" opacity="0.1" id="svg_18"/><path d="M709.0623490917968,402.1776122167969 a1.69388,1.69388 0 0 0 1.14311,-0.3364200000000001 a1.76559,1.76559 0 0 0 0.35730000000000006,-1.31543 l-0.03359000000000001,-11.97293 c-3.44295,-1.6404 -7.29415,-2.1662 -11.0743,-2.67148 L681.8172790917969,383.5237722167969 c0.40523,0.054160000000000014 -2.75773,7.59664 -2.27275,8.60359 c0.8547700000000001,1.77475 7.38718,3.3476600000000003 9.23078,4.18562 C695.1843090917969,399.22607221679687 701.8440890917968,402.4286222167969 709.0623490917968,402.1776122167969 z" fill="#a0616a" id="svg_19"/><path d="M653.7246790917969,388.51140221679685 c-3.33013,0.5304099999999999 -7.047,0.99927 -9.20364,3.59157 c-2.7349200000000002,3.28738 -1.57064,8.188 -0.266,12.26045 a3.97512,3.97512 0 0 0 4.6374,3.317 c3.037,0.19231000000000004 6.26906,0.3430000000000001 8.92262,-1.1467100000000001 a39.10621,39.10621 0 0 0 3.46608,-2.57636 a22.22264,22.22264 0 0 1 6.37266,-2.9135 a64.44127,64.44127 0 0 1 12.792,-2.6362200000000002 a19.89456,19.89456 0 0 0 5.03931,-0.88831 a5.58371,5.58371 0 0 0 3.54887,-3.44555 c0.6146600000000001,-2.17582 -0.6499300000000001,-4.39415 -1.8627500000000001,-6.30233 a25.14245,25.14245 0 0 0 -5.36411,-6.6297500000000005 c-3.28642,-2.55284 -4.91212,-0.59313 -8.22257,1.04049 A69.76371,69.76371 0 0 1 653.7246790917969,388.51140221679685 z" fill="#a0616a" id="svg_20"/><path d="M645.0220390917968,391.51101221679687 l-21.14511,-6.24976 a27.98825,27.98825 0 0 0 -7.86885,-1.5248400000000002 a9.44649,9.44649 0 0 0 -7.22644,2.92243 c-1.63965,1.92439 -2.109,4.55451 -2.51772,7.04944 l-0.8744000000000001,5.337 a26.80527,26.80527 0 0 0 -0.48958000000000007,8.1957 a9.0617,9.0617 0 0 0 4.20068,6.752 c2.92607,1.5964200000000002 6.51235,0.8166800000000001 9.778,0.14893000000000003 a106.45432,106.45432 0 0 1 20.03815,-2.1488 c2.531,-0.030270000000000005 5.18562,0.0014300000000000005 7.42207,-1.18387 a9.26647,9.26647 0 0 0 4.52239,-7.38444 C651.2773390917969,398.86577221679687 649.7577590917969,392.9107722167969 645.0220390917968,391.51101221679687 z" fill="#2f2e41" id="svg_21"/><path d="M717.3741690917968,386.0647722167969 c2.74115,-0.48042000000000007 5.16036,-2.03833 7.787,-2.9579 c3.6971000000000003,-1.2943500000000001 7.70357,-1.29433 11.62067,-1.28 a7.46024,7.46024 0 0 1 4.16623,0.83438 c1.72541,1.14869 2.16763,3.44747 2.461,5.49942 l1.7701,12.38028 a19.42771,19.42771 0 0 1 0.1446,7.01376 c-0.5193099999999999,2.29424 -2.08312,4.506 -4.35973,5.09786 c-2.765,0.7188200000000001 -5.47563,-1.04746 -8.08633,-2.20775 c-6.52523,-2.9 -14.11042,-2.15882 -20.91415,-4.32634 a4.68742,4.68742 0 0 1 -3.13,-2.23827 a5.09274,5.09274 0 0 1 -0.24351000000000003,-2.1394 c0.11651000000000002,-3.97939 -0.7228000000000001,-9.41332 0.47527,-13.21648 C710.1427590917968,385.1039622167969 714.3143490917969,386.0647722167969 717.3741690917968,386.0647722167969 z" fill="#2f2e41" id="svg_22"/><path d="M762.1218390917969,326.57919221679686 a36.71918,36.71918 0 0 1 12.935,-0.8837600000000001 c3.458,0.38100000000000006 7.02087,1.3432 9.54563,3.7366800000000002 c3.073,2.91321 4.06034,7.41855 4.14271,11.65213 a36.40382,36.40382 0 0 1 -7.91243,23.24909 a21.09574,21.09574 0 0 1 -4.52371,4.35479 a29.7763,29.7763 0 0 1 -5.88563,2.83629 l-45.68734,18.02042 c-12.01933,4.74078 -24.08108,9.49529 -36.61789,12.62065 a2.8538300000000003,2.8538300000000003 0 0 1 -3.84015,-1.3922400000000001 a94.65417,94.65417 0 0 1 -10.01339,-18.31708 a1.23429,1.23429 0 0 1 0.54552,-1.9461400000000002 l32.315,-18.56722 a32.67407,32.67407 0 0 0 6.57728,-4.53184 a16.32909,16.32909 0 0 0 3.37681,-4.70121 c0.6698400000000002,-1.3990900000000002 0.7323200000000001,-4.70071 1.58792,-5.73485 c0.8377100000000001,-1.01251 3.70338,-1.09331 5.02688,-1.49154 a45.613,45.613 0 0 0 5.47254,-2.06871 c7.22863,-3.23385 13.665610000000001,-7.93247 20.59523,-11.719 A52.84362,52.84362 0 0 1 762.1218390917969,326.57919221679686 z" fill="#2f2e41" id="svg_23"/><path d="M743.8021090917969,340.44512221679685 c-5.55183,4.16981 -12.74047,8.00282 -18.24292,12.2825 c-1.87793,1.46061 -33.18344,19.06089 -33.62609,21.39842 c5.13348,0.8650000000000001 37.83421,-22.01168 42.51287,-24.29441 s8.82614,-5.50184 12.93593,-8.69721 c1.04734,-0.81431 5.486,-3.26228 2.47938,-4.17207 C748.1675690917968,336.44984221679687 745.0525690917968,339.6115122167969 743.8021090917969,340.44512221679685 z" opacity="0.1" id="svg_24"/><path d="M705.6012590917969,204.56532221679686 H656.8665690917969 a7.4655000000000005,7.4655000000000005 0 0 0 -7.46549,7.46549 v2.7338 h-0.52955 v6.11383 h0.52955 v4.27969 h-0.52955 v3.6683000000000003 h0.52955 V273.9377722167969 a7.4655000000000005,7.4655000000000005 0 0 0 7.46549,7.46549 h48.73473 a7.4655000000000005,7.4655000000000005 0 0 0 7.46549,-7.46549 V212.0307722167969 A7.4655000000000005,7.4655000000000005 0 0 0 705.6012590917969,204.56532221679686 z" fill="#d0cde1" id="svg_25"/><polygon points="713.347 146.901 688.629 133.953 654.494 139.25 647.432 170.442 665.012 169.765 669.923 158.306 669.923 169.577 678.035 169.265 682.743 151.02 685.686 170.442 714.524 169.853 713.347 146.901" fill="#2f2e41" id="svg_26"/><path d="M629.3876890917969,322.53909221679686 a12.84416,12.84416 0 0 0 4.61387,4.5901 a9.02314,9.02314 0 0 0 7.93145,-0.21258000000000002 a13.96088,13.96088 0 0 0 5.72384,-5.73878 c2.68637,-4.74373 3.24271,-10.42009 2.90749,-15.86133 s-1.497,-10.799150000000001 -2.01125,-16.2264 c-0.3738000000000001,-3.94524 -0.40419,-7.914 -0.4343000000000001,-11.87681 a3.94955,3.94955 0 0 1 0.49911000000000005,-2.40193 a4.71586,4.71586 0 0 1 2.64984,-1.32324 c5.42168,-1.6108700000000002 9.02044,-6.69265 11.60049,-11.72582 c1.7227800000000002,-3.36081 3.22088,-7.03459 2.8886600000000002,-10.79659 s-3.03631,-7.55187 -6.7933900000000005,-7.93564 c-3.09745,-0.31640000000000007 -5.95746,1.6509500000000001 -8.19178,3.81937 A35.127,35.127 0 0 0 640.4865690917969,267.4042822167969 c-0.49046000000000006,3.8251 -0.35000000000000003,7.7543 -1.39037,11.46773 c-2.22145,7.92887 -9.17194,12.79011 -12.63565,19.92467 C622.6439590917969,306.6582022167969 624.7504590917969,315.58324221679686 629.3876890917969,322.53909221679686 z" fill="#a0616a" id="svg_27"/><path d="M731.6680690917968,292.24751221679685 a14.98436,14.98436 0 0 1 -8.40311,8.07433 a11.60553,11.60553 0 0 1 -7.305,0.44739000000000007 a8.10041,8.10041 0 0 1 -5.35136,-4.7865400000000005 a12.89451,12.89451 0 0 1 -0.6027800000000001,-3.59534 c-0.3476000000000001,-5.3469 -0.21328000000000003,-10.85672 1.7289,-15.85053 c0.7491000000000001,-1.92611 1.75913,-3.7528 2.35032,-5.73309 a28.75224,28.75224 0 0 0 0.8850000000000001,-6.99674 l0.63846,-14.589 a9.49429,9.49429 0 0 0 -0.21671000000000004,-3.16333 c-0.6368300000000001,-2.11095 -2.60973,-3.48278 -4.41995,-4.74165 c-4.37179,-3.04026 -8.692,-6.58792 -10.81042,-11.47341 a8.04686,8.04686 0 0 1 -0.7470000000000001,-4.75248 c0.5973200000000001,-2.8970000000000002 3.5209,-4.77244 6.41054,-5.40428 a14.3393,14.3393 0 0 1 17.1909,11.555109999999999 c0.28589000000000003,1.6464 0.28195000000000003,3.32814 0.44929,4.99078 c0.35495000000000004,3.52685 1.47459,6.92655 2.175,10.40134 c1.72532,8.55913 0.83131,17.4068 2.5374499999999998,25.964480000000002 C729.6041790917968,279.74971221679687 734.9832890917969,284.41853221679685 731.6680690917968,292.24751221679685 z" fill="#a0616a" id="svg_28"/><circle cx="681.8861694335938" cy="231.27195739746094" r="6.113830089569092" fill="#e9e98a" id="svg_29" class="" fill-opacity="1"/><circle cx="18.036989212036133" cy="432.96923828125" r="18.0350399017334" fill="#2f2e41" id="svg_30"/><polygon points="83.411 486.51 74.327 477.68 56.086 483.346 57.838 504.467 95.344 502.725 83.822 487.069 83.411 486.51" fill="#fbbebe" id="svg_31"/><circle cx="63.54349136352539" cy="457.1705322265625" r="29.1577205657959" fill="#fbbebe" id="svg_32"/><path d="M244.55622909179687,523.9341722167969 s35.82078,61.55868 44.34576,70.80024 a154.73921,154.73921 0 0 0 12.93514,12.89173 s-4.00845,13.29343 -10.39133,12.819 a30.04191,30.04191 0 0 1 -10.529209999999999,-2.59486 s-2.8489,-7.385 -7.81819,-10.62367 s-45.5683,-43.17979 -44.61938,-55.94556 S244.55622909179687,523.9341722167969 244.55622909179687,523.9341722167969 z" fill="#2f2e41" id="svg_33"/><path d="M116.9874590917969,611.7810422167969 s38.19308,29.64424 90.0987,1.7893 l4.47313,-3.2918700000000003 s-7.54884,16.982 -8.24924,21.58608 c-0.81211,5.33843 -20.46565,36.61011 -23.67284,38.10839 s-3.914,2.8803900000000002 -3.914,2.8803900000000002 l13.61045,14.98063 l5.03226,-3.70336 s19.62205,-27.80067 25.36111,-32.88613 S252.8097490917969,593.7127722167969 252.8097490917969,593.7127722167969 s10.45431,-19.761 -15.63638,-21.24735 s-38.09647,5.625 -38.09647,5.625 l-46.30443,7.35565 z" fill="#2f2e41" id="svg_34"/><path d="M302.2800990917969,604.7142722167969 l19.318,13.36618 s24.6456,7.72158 9.46412,12.860240000000001 s-55.18771,6.99736 -56.09536,-0.09232000000000003 s1.578,-18.24868 3.57383,-17.63847 S294.3891590917969,617.4170622167969 302.2800990917969,604.7142722167969 z" fill="#2f2e41" id="svg_35"/><path d="M196.07538909179686,679.5385622167969 l3.57552,19.63479 s10.167,19.44435 -2.04019,13.41119 s-37.35722,-28.95 -33.6434,-33.75432 s11.9107,-10.01481 12.74313,-8.44923 S183.70384909179688,682.4292522167968 196.07538909179686,679.5385622167969 z" fill="#2f2e41" id="svg_36"/><path d="M159.24002909179688,591.8919522167969 s-25.96259,30.31191 -41.72492,22.948620000000002 s-80.24908,-92.648 -72.88579,-108.41033 S54.46150909179687,494.02277221679685 54.46150909179687,494.02277221679685 l33.29655,3.07909 l-9.5803,-15.36063 s4.47313,-3.2918700000000003 8.73562,1.32892 s21.37544,16.16188 27.33707,32.46165 s23.46434,15.48657 23.46434,15.48657 z" fill="#fff" id="svg_37"/><polygon points="264.085 529.388 219.08 577.161 178.764 505.981 217.091 459.674 264.085 529.388" fill="#3f3d56" id="svg_38"/><polygon points="260.688 528.871 220.04 570.852 183.206 506.16 216.986 463.631 260.688 528.871" fill="#fff" id="svg_39"/><polygon points="216.875 575.336 219.08 577.161 217.666 579.925 154.735 598.655 154.14 596.499 157.003 593.538 216.875 575.336" fill="#b3b3b3" id="svg_40"/><polygon points="219.639 576.75 154.472 597.125 114.747 522.062 178.764 505.981 219.639 576.75" fill="#d0cde1" id="svg_41"/><polygon points="214.733 566.569 211.937 568.626 180.907 514.748 184.114 513.25 214.733 566.569" fill="#3f3d56" id="svg_42"/><polygon points="208.318 569.565 180.751 577.785 149.457 522.377 176.729 516.099 208.318 569.565" fill="#3f3d56" id="svg_43"/><path d="M130.65656909179688,528.4550022167969 l5.7075700000000005,-1.6144500000000002 s31.82975,-3.5991 32.29443,6.40245 s-36.5667,5.36121 -36.5667,5.36121 l-4.93781,-6.7096800000000005 z" fill="#fbbebe" id="svg_44"/><path d="M158.57450909179687,573.4186022167969 l7.94414,-3.26038 s23.98007,-10.75177 17.101,-17.75678 s-28.09491,5.16037 -28.09491,5.16037 l-4.06164,3.851 z" fill="#fbbebe" id="svg_45"/><path d="M151.49456909179685,557.9417722167968 s12.93514,12.89173 9.99178,15.91977 s-51.20861,42.85727 -63.17312,30.1132 s-70.25731,-76.72823 -47.57466,-82.21539 s28.67576,7.34159 28.67576,7.34159 l29.94384,51.23031 z" fill="#fff" id="svg_46"/><polygon points="112.763 518.781 134.011 525.986 133.664 541.326 111.192 538.901 112.763 518.781" fill="#fff" id="svg_47"/><polygon points="131.914 565.887 109.021 579.287 82.865 539.06 108.113 572.197 131.914 565.887" opacity="0.2" id="svg_48"/><circle cx="50.74531173706055" cy="448.7183837890625" r="34.711570739746094" fill="#2f2e41" id="svg_49"/><polygon points="238.3 532.417 213.995 496.862 224.298 484.108 249.553 520.688 238.3 532.417" fill="#e9e98a" id="svg_50" class="" fill-opacity="1"/><polygon points="237.615 546.712 200.613 492.919 202.438 490.714 239.267 544.634 237.615 546.712" fill="#e6e6e6" id="svg_51"/><polygon points="232.847 551.945 195.845 498.152 197.67 495.947 234.499 549.868 232.847 551.945" fill="#e6e6e6" id="svg_52"/><polygon points="228.785 555.796 191.783 502.003 193.608 499.798 230.437 553.719 228.785 555.796" fill="#e6e6e6" id="svg_53"/><path d="M66.11686,425.5444h10.738a20.49972,20.49972,0,0,1,20.49972,20.49972v0a0,0,0,0,1,0,0H66.11686a0,0,0,0,1,0,0V425.5444A0,0,0,0,1,66.11686,425.5444Z" fill="#2f2e41" id="svg_54"/><path d="M214.03130909179686,412.4987122167969 l-1.9466400000000001,-0.14490000000000003 c-0.07549000000000002,1.01216 -0.12953,2.0304 -0.19376000000000004,3.0459 l-8.73775,-0.29254 l9.16555,17.17535 l10.29378,-16.52389 l-8.76982,-0.29361000000000004 C213.90540909179686,414.4762722167969 213.95778909179688,413.4847722167969 214.03130909179686,412.4987122167969 z" fill="#3f3d56" id="svg_55"/><path d="M265.28112909179686,272.49820221679687 l1.552,1.185 c2.32795,-3.04912 4.75934,-6.093 7.227,-9.04728 l-1.49859,-1.25168 C270.0757390917969,266.36039221679687 267.6262390917969,269.4266722167969 265.28112909179686,272.49820221679687 z" fill="#3f3d56" id="svg_56"/><path d="M280.23647909179687,254.60049221679685 l1.4413900000000002,1.31651 c2.59011,-2.8365400000000003 5.27937,-5.6535400000000005 7.992,-8.37378 L288.28756909179685,246.16477221679685 C285.5544590917969,248.9045322167969 282.84565909179685,251.74298221679686 280.23647909179687,254.60049221679685 z" fill="#3f3d56" id="svg_57"/><path d="M296.7004290917969,238.09177221679687 l1.32031,1.43853 c2.83273,-2.60108 5.75745,-5.17022 8.69266,-7.6364 l-1.2555,-1.49477 C302.5007690917969,232.8833922167969 299.5541290917969,235.47208221679688 296.7004290917969,238.09177221679687 z" fill="#3f3d56" id="svg_58"/><path d="M251.95543909179685,291.6514022167969 l1.65016,1.04291 c2.052,-3.24646 4.20691,-6.49387 6.40426,-9.65262 l-1.60249,-1.11536 C256.1933290917969,285.10891221679685 254.0226690917969,288.3806422167969 251.95543909179685,291.6514022167969 z" fill="#3f3d56" id="svg_59"/><path d="M314.5433190917969,223.09969221679688 l1.18876,1.54816 c3.05056,-2.34226 6.18882,-4.6435200000000005 9.32755,-6.83992 l-1.11917,-1.5996400000000002 C320.77788909179685,218.42138221679687 317.61627909179686,220.7397722167969 314.5433190917969,223.09969221679688 z" fill="#3f3d56" id="svg_60"/><path d="M240.37047909179688,311.9156822167969 l1.7360000000000002,0.8922800000000001 c1.7588400000000002,-3.42043 3.6187300000000002,-6.84754 5.52771,-10.18552 l-1.6950000000000003,-0.9695 C244.01588909179685,305.0161822167969 242.1421790917969,308.4690222167969 240.37047909179688,311.9156822167969 z" fill="#3f3d56" id="svg_61"/><path d="M221.53900909179686,366.87001221679685 l-1.89039,-0.48665 c-0.9647400000000002,3.746 -1.858,7.56585 -2.6549400000000003,11.35426 l1.91042,0.40229 C219.69532909179685,374.3801022167969 220.58189909179686,370.58788221679686 221.53900909179686,366.87001221679685 z" fill="#3f3d56" id="svg_62"/><path d="M333.62930909179687,209.74016221679688 l1.04768,1.6473 c3.236,-2.05913 6.563,-4.07392 9.889,-5.98862 l-0.97427,-1.69211 C340.24091909179685,205.63621221679688 336.8891190917969,207.66577221679688 333.62930909179687,209.74016221679688 z" fill="#3f3d56" id="svg_63"/><path d="M216.77299909179686,389.51563221679686 l-1.9266200000000002,-0.31650000000000006 c-0.6268000000000001,3.81129 -1.17733,7.695 -1.6363400000000001,11.5435 l1.939,0.23069 C215.60424909179687,397.15441221679686 216.15096909179687,393.29927221679685 216.77299909179686,389.51563221679686 z" fill="#3f3d56" id="svg_64"/><path d="M230.6253790917969,333.1389722167969 l1.8084099999999999,0.7350000000000001 c1.44758,-3.563 2.99622,-7.14354 4.60252,-10.64167 l-1.77408,-0.8150700000000001 C233.64356909179685,325.9420422167969 232.08344909179687,329.5493222167969 230.6253790917969,333.1389722167969 z" fill="#3f3d56" id="svg_65"/><path d="M222.80546909179685,355.1592222167969 l1.86751,0.5700700000000001 c1.12585,-3.684 2.34941,-7.39045 3.6368400000000003,-11.01632 l-1.8398700000000001,-0.6530000000000001 C225.17298909179686,347.71252221679686 223.93989909179686,351.44707221679687 222.80546909179685,355.1592222167969 z" fill="#3f3d56" id="svg_66"/><path d="M465.6969390917968,170.82650221679688 c3.8275,-0.1325 7.72458,-0.18541000000000005 11.57972,-0.14919000000000002 l0.017160000000000005,-1.95235 c-3.88183,-0.036230000000000005 -7.80942,0.016680000000000004 -11.66361,0.15014000000000002 z" fill="#3f3d56" id="svg_67"/><path d="M353.8092190917969,198.1223122167969 l0.8980000000000001,1.7330900000000002 c3.4094700000000002,-1.76646 6.8995,-3.47811 10.37427,-5.08775 l-0.8207900000000001,-1.77123 C360.76019909179684,194.61798221679686 357.2439490917968,196.3425022167969 353.8092190917969,198.1223122167969 z" fill="#3f3d56" id="svg_68"/><path d="M511.8947590917969,173.26077221679685 c3.80842,0.5390900000000001 7.65212,1.17018 11.42433,1.87609 l0.35844000000000004,-1.919 c-3.79985,-0.71116 -7.67215,-1.34748 -11.51013,-1.89039 z" fill="#3f3d56" id="svg_69"/><path d="M534.6499990917969,177.5181822167969 c3.73883,0.8732300000000001 7.5120000000000005,1.84368 11.2127,2.88421 l0.52812,-1.8799100000000002 c-3.72835,-1.04815 -7.52915,-2.02528 -11.29659,-2.90517 z" fill="#3f3d56" id="svg_70"/><path d="M556.9333590917969,183.78326221679686 c3.64541,1.20259 7.31656,2.5048 10.9105,3.87087 l0.6940000000000002,-1.82461 c-3.62158,-1.37656 -7.31943,-2.6887800000000004 -10.99249,-3.90042 z" fill="#3f3d56" id="svg_71"/><path d="M488.85065909179684,171.0319422167969 c3.84466,0.20162 7.72935,0.4914200000000001 11.54731,0.8603500000000001 l0.18876000000000004,-1.9428200000000002 c-3.84657,-0.37226000000000004 -7.76081,-0.6640000000000001 -11.63311,-0.8670000000000001 z" fill="#3f3d56" id="svg_72"/><path d="M442.3878290917969,170.70162221679686 l0.23833000000000001,1.9380600000000001 c3.8046100000000003,-0.46807000000000004 7.67882,-0.85845 11.51394,-1.15969 l-0.15253000000000003,-1.9466400000000001 C450.12289909179685,169.83698221679686 446.2200990917969,170.23022221679685 442.3878290917969,170.70162221679686 z" fill="#3f3d56" id="svg_73"/><path d="M396.8420790917969,180.46912221679685 l0.5777000000000001,1.8646500000000001 c3.6687700000000003,-1.13585 7.41285,-2.2045 11.12881,-3.17639 l-0.4938100000000001,-1.88848 C404.31116909179684,178.24746221679686 400.5384890917969,179.32421221679687 396.8420790917969,180.46912221679685 z" fill="#3f3d56" id="svg_74"/><path d="M374.9252590917969,188.34099221679685 l0.7411900000000001,1.8065 c3.54961,-1.45664 7.17548,-2.8508400000000003 10.77705,-4.14495 l-0.6596900000000002,-1.8370000000000002 C382.15456909179693,185.46870221679688 378.5015690917969,186.87386221679685 374.9252590917969,188.34099221679685 z" fill="#3f3d56" id="svg_75"/><path d="M419.39856909179684,174.57106221679686 l0.40900000000000003,1.90946 c3.75076,-0.80411 7.5749200000000005,-1.53577 11.36714,-2.174 l-0.3241200000000001,-1.9256600000000001 C427.03018909179684,173.0243322167969 423.1769590917969,173.76123221679688 419.39856909179684,174.57106221679686 z" fill="#3f3d56" id="svg_76"/><path d="M596.9745690917969,199.7253422167969 l-10.91021,-16.1235 l-3.83631,7.89659 c-0.92852,-0.41463 -1.852,-0.83825 -2.77964,-1.23988 l-0.776,1.7922 c0.90581,0.39200000000000007 1.80144,0.803 2.702,1.20473 l-3.81814,7.85923 z" fill="#3f3d56" id="svg_77"/></g></svg>